<svg aria-hidden="true" style="position: absolute; width: 0; height: 0; overflow: hidden;" version="1.1" xmlns="http://www.w3.org/2000/svg" xmlns:xlink="http://www.w3.org/1999/xlink">
<defs>
<symbol id="logo" viewBox="0 0 45 32">
<path d="M17.318 18.586c0 0.036-0.002 0.072-0.003 0.096-0.001 0.028-0.002 0.045-0.001 0.060 0.001 0.013 0.003 0.019 0.004 0.022l0.010 0.012 0.008 0.008c0.025 0.028 0.070 0.054 0.148 0.084 0.060 0.023 0.162 0.057 0.242 0.098h0.001c0.151 0.065 0.288 0.172 0.385 0.312l0.039 0.062 0.004 0.007h-0.001c0.046 0.088 0.061 0.177 0.071 0.244 0.011 0.072 0.017 0.119 0.033 0.167 0.013 0.033 0.034 0.063 0.065 0.099 0.017 0.019 0.034 0.038 0.055 0.060 0.019 0.020 0.040 0.043 0.061 0.067 0.165 0.161 0.3 0.34 0.402 0.552h0.001c0.241 0.496 0.387 1.072 0.539 1.57l0.024 0.083c0.022 0.087 0.038 0.187 0.028 0.286-0.015 0.143-0.083 0.282-0.238 0.374l-0.001 0.001c-0.217 0.126-0.479 0.098-0.664 0.026l-0.006-0.002v-0.001c-0.042-0.018-0.082-0.039-0.113-0.054-0.034-0.017-0.059-0.030-0.081-0.038-0.039-0.014-0.050-0.010-0.060-0.004l-0.010 0.005-0.010 0.003c-0.017 0.006-0.029 0.016-0.067 0.041-0.033 0.022-0.089 0.058-0.164 0.073l-0.001-0.001c-0.139 0.040-0.273-0.012-0.357-0.059v0.001c-0.001-0-0.002-0.002-0.003-0.002-0.003-0.002-0.006-0.003-0.009-0.004l0.001-0.001c-0.024-0.013-0.043-0.027-0.053-0.036-0.009-0.008-0.018-0.017-0.025-0.024-0.011 0.006-0.025 0.015-0.040 0.022l-0.008 0.004c-0.235 0.099-0.498 0.063-0.694-0.060-0.042-0.027-0.081-0.059-0.117-0.094-0.107 0.143-0.151 0.328-0.115 0.514 0.041 0.17 0.13 0.426-0.018 0.691l-0.001-0.001c-0.076 0.143-0.196 0.245-0.304 0.325l-0.101 0.075c-0.135 0.102-0.207 0.25-0.27 0.444-0.058 0.178-0.115 0.423-0.226 0.622l0.001 0.001c-0.061 0.118-0.151 0.232-0.259 0.327 0.006 0.003 0.012 0.007 0.018 0.011h0.001c0.058 0.033 0.108 0.070 0.149 0.101 0.043 0.033 0.074 0.056 0.104 0.075 0.049 0.030 0.082 0.039 0.139 0.020l0.004-0.001 0.099-0.039c0.097-0.049 0.188-0.125 0.299-0.219 0.138-0.117 0.31-0.262 0.538-0.327v-0.001l0.129-0.028c0.649-0.104 1.34 0.341 1.444 0.994h-0.001c0.018 0.089 0.002 0.179-0.054 0.25-0.056 0.070-0.136 0.104-0.209 0.112-0.147 0.015-0.326-0.073-0.359-0.277l-0.001-0.003c-0.033-0.229-0.274-0.426-0.544-0.451l-0.003-0.001c-0.142-0.016-0.254 0.033-0.378 0.125-0.064 0.047-0.125 0.102-0.196 0.163-0.067 0.058-0.143 0.122-0.226 0.177l0.001 0.001c-0.193 0.136-0.4 0.212-0.612 0.209s-0.41-0.083-0.589-0.228v0.001c-0.052-0.039-0.121-0.073-0.21-0.11-0.082-0.035-0.188-0.075-0.28-0.122-0.094-0.048-0.196-0.112-0.272-0.209-0.025-0.032-0.045-0.067-0.063-0.104l-0.103-0.041 0.069-0.054c-0.006-0.023-0.012-0.047-0.016-0.071l-0.005-0.109c0.003-0.201 0.166-0.356 0.362-0.354l0.086 0.010 0.003 0.001 0.050 0.009c0.045 0.003 0.077-0.008 0.103-0.024 0.041-0.025 0.083-0.074 0.125-0.153 0.087-0.165 0.128-0.367 0.182-0.541l0.001-0.006h0.001c0.062-0.181 0.133-0.373 0.279-0.55l0.005-0.006 0.103-0.099c0.035-0.030 0.071-0.056 0.104-0.080 0.070-0.051 0.127-0.090 0.183-0.137 0.029-0.026 0.037-0.050 0.033-0.106-0.003-0.034-0.010-0.071-0.020-0.122-0.009-0.046-0.022-0.104-0.027-0.164v0.001c-0.015-0.163-0.004-0.332 0.050-0.495l0.025-0.069c0.109-0.307 0.33-0.546 0.603-0.704l0.007-0.054 0.044 0.025c0.035-0.018 0.070-0.036 0.107-0.052v0.001c0.096-0.044 0.212-0.040 0.304-0.001 0.050 0.021 0.101 0.057 0.139 0.113 0.040 0.058 0.057 0.128 0.048 0.202v0.003c-0.003 0.025 0.003 0.038 0.005 0.040 0.001 0.001 0.001 0.001 0.002 0.001l0.013 0.004 0.007 0.001-0.006-0.001c0-0 0.014-0.002 0.050-0.020 0.025-0.012 0.040-0.021 0.073-0.037 0.027-0.013 0.061-0.030 0.097-0.041v0.001c0.113-0.041 0.253-0.043 0.378 0.024h0.001c0.001 0 0.001 0.001 0.002 0.001 0.003 0.002 0.007 0.003 0.010 0.005h-0.001c0.037 0.019 0.065 0.040 0.085 0.058 0.002 0.002 0.005 0.004 0.007 0.006 0.006-0.003 0.012-0.006 0.018-0.010 0.019-0.011 0.044-0.026 0.070-0.039 0.056-0.028 0.126-0.054 0.217-0.054 0.118 0 0.214 0.022 0.304 0.054l0.089 0.035 0.005 0.002 0.001 0.001c-0.001-0.003-0.002-0.007-0.003-0.010l-0.001-0.005c-0.147-0.472-0.247-0.95-0.47-1.366l-0.001-0.002c-0.044-0.085-0.103-0.159-0.174-0.236-0.064-0.070-0.161-0.165-0.239-0.255l-0.001-0.001c-0.174-0.204-0.197-0.406-0.239-0.582l-0.001-0.005c-0.012-0.059-0.059-0.107-0.2-0.169-0.033-0.015-0.067-0.029-0.105-0.043s-0.077-0.031-0.115-0.048c-0.075-0.033-0.16-0.074-0.232-0.133v0.001c-0.203-0.156-0.283-0.373-0.285-0.593v0.001c-0.008-0.125-0.008-0.252-0.010-0.37-0.002-0.121-0.005-0.237-0.020-0.355l-0.001-0.001c-0.014-0.119-0.040-0.224-0.071-0.359-0.003 0-0.006 0.001-0.009 0.001-0.007 0-0.017 0.001-0.026 0.001h-0.007l-0.007-0.001c-0.239-0.019-0.441-0.137-0.579-0.327l0.001-0.001c-0.037-0.046-0.070-0.099-0.093-0.135-0.028-0.044-0.050-0.074-0.074-0.097l-0.006-0.005-0.004-0.005c-0.157 0.099-0.352 0.163-0.558 0.094l-0.093-0.040c-0.11-0.058-0.196-0.138-0.265-0.211-0.079-0.083-0.119-0.134-0.18-0.194-0.103-0.1-0.204-0.148-0.351-0.227v-0.001c-0.244-0.118-0.594-0.319-0.636-0.72l0.001-0.001c-0.008-0.054 0.004-0.114 0.050-0.163 0.047-0.051 0.108-0.065 0.146-0.067 0.060-0.004 0.12 0.013 0.173 0.042l0.051 0.033 0.026 0.020 0.018 0.030c0.079 0.136 0.213 0.219 0.397 0.291 0.093 0.036 0.188 0.066 0.293 0.102 0.102 0.034 0.21 0.073 0.311 0.124h-0.001c0.107 0.052 0.207 0.132 0.287 0.207 0.005-0.003 0.009-0.007 0.014-0.011 0.014-0.010 0.033-0.020 0.055-0.030l0.063-0.029c0.312-0.121 0.612 0.051 0.781 0.245h0.001c0.045 0.049 0.082 0.102 0.112 0.146 0.032 0.048 0.055 0.084 0.080 0.116 0.046 0.058 0.075 0.073 0.117 0.073 0.128 0 0.264 0.016 0.383 0.082 0.095 0.052 0.168 0.13 0.22 0.23l0.045 0.109 0.001 0.003 0.054 0.211c0.045 0.213 0.066 0.431 0.078 0.626v0.431z"></path>
<path d="M22.469 21.521l-0.001 0.001c0.206 0.016 0.313 0.184 0.313 0.334-0 0.075-0.026 0.157-0.087 0.221-0.049 0.050-0.111 0.081-0.181 0.090l-0.071 0.001c-0.378-0.028-0.757 0.028-1.125 0.155l-0.111 0.045c-0.12 0.051-0.259 0.12-0.367 0.204-0.062 0.047-0.103 0.090-0.128 0.129 0.245 0.106 0.449 0.304 0.526 0.579l0.018 0.081 0.001 0.006h-0.001c0.058 0.391-0.153 0.793-0.514 0.976l-0.005 0.003c-0.214 0.099-0.434 0.11-0.621 0.115-0.196 0.006-0.352 0.006-0.501 0.055l0.001 0.001c-0.065 0.023-0.111 0.058-0.208 0.114-0.087 0.050-0.201 0.106-0.348 0.106-0.037 0-0.073-0.004-0.108-0.010-0.055 0.116-0.114 0.231-0.173 0.345l0.063 0.067-0.108 0.020-0.065 0.129c-0.059 0.114-0.171 0.157-0.26 0.164-0.028 0.002-0.058-0-0.088-0.005 0.016 0.276 0.024 0.551 0.024 0.827 0 0.16-0.125 0.246-0.23 0.261-0.096 0.013-0.255-0.030-0.286-0.197v0.001c-0.101-0.5-0.187-1.005-0.238-1.523l-0.094-0.091 0.081-0.039c-0-0.001-0.001-0.002-0.001-0.003l0.001-0.001c-0.016-0.171 0.097-0.284 0.211-0.327 0.094-0.035 0.22-0.035 0.321 0.034l0.042 0.034 0.001 0.001 0.070-0.033 0.014 0.119c0.023 0.024 0.046 0.048 0.069 0.071 0.043-0.088 0.083-0.177 0.12-0.266l-0.104-0.151h0.166c0.001-0.003 0.002-0.005 0.003-0.008l0.008-0.018c0.115-0.222 0.416-0.266 0.579-0.067 0.016-0.007 0.036-0.018 0.062-0.035 0.024-0.015 0.065-0.043 0.099-0.061l0.008-0.005 0.081-0.035c0.079-0.032 0.16-0.055 0.242-0.069 0.123-0.025 0.247-0.033 0.359-0.039 0.117-0.006 0.22-0.009 0.319-0.023h0.002l0.074-0.012c0.072-0.015 0.136-0.040 0.184-0.072 0.059-0.040 0.096-0.091 0.105-0.168l0.001-0.003v-0.046c-0.012-0.108-0.113-0.214-0.259-0.223l-0.011-0.001-0.012-0.002c-0.053-0.010-0.112-0.029-0.166-0.069-0.056-0.042-0.093-0.096-0.118-0.156l-0.003-0.007c-0.047-0.127-0.055-0.247-0.039-0.359l-0.117-0.113 0.139 0.012c0.036-0.12 0.1-0.228 0.179-0.322 0.167-0.198 0.405-0.346 0.612-0.442l0.193-0.083c0.456-0.18 0.947-0.26 1.452-0.218z"></path>
<path d="M23.762 21.34c0.354 0 0.813 0.146 0.959 0.567l0.024 0.086c0.018 0.085 0.017 0.169-0.005 0.247-0.030 0.106-0.096 0.187-0.175 0.244-0.152 0.109-0.36 0.135-0.538 0.118h-0.001c-0.14-0.014-0.282-0.032-0.425-0.050 0.001 0.025 0 0.049-0.002 0.073 0.129 0.049 0.253 0.105 0.37 0.164 0.203 0.101 0.387 0.201 0.579 0.276l0.196 0.067 0.003 0.001 0.111 0.028c0.112 0.022 0.228 0.028 0.35 0.026 0.082-0.001 0.165-0.005 0.251-0.009 0.085-0.004 0.175-0.008 0.265-0.008 0.343 0 0.686 0.047 1.014 0.142h-0.001c0.119 0.031 0.271 0.074 0.414 0.135 0.14 0.059 0.294 0.145 0.392 0.271h-0.001c0.059 0.075 0.093 0.16 0.090 0.251-0.003 0.090-0.039 0.165-0.081 0.223-0.081 0.11-0.208 0.189-0.299 0.237l-0.001 0.001c-0.491 0.251-0.947 0.53-1.355 0.866-0.138 0.123-0.274 0.254-0.407 0.386 0.081-0.008 0.165-0.010 0.249-0.001l0.098 0.016 0.011 0.003c0.089 0.025 0.192 0.062 0.283 0.123l0.087 0.069 0.007 0.007 0.006 0.007c0.035 0.043 0.066 0.085 0.092 0.122 0.024 0.033 0.046 0.062 0.069 0.091 0.004 0.001 0.015 0.003 0.039 0 0.012-0.001 0.026-0.003 0.043-0.006 0.016-0.003 0.035-0.006 0.055-0.009s0.043-0.005 0.068-0.006l0.079 0.002 0.009 0.001-0.001 0.001c0.094 0.015 0.189 0.052 0.268 0.107l0.074 0.060 0.006 0.005 0.073 0.089c0.153 0.215 0.195 0.486 0.221 0.677l0.016 0.11c0.030 0.252 0.011 0.491-0.031 0.734l0.001 0.001c-0.017 0.151-0.042 0.278-0.042 0.41 0 0.094 0.013 0.169 0.044 0.23l0.037 0.056 0.001 0.001 0.048 0.050c0.118 0.106 0.272 0.127 0.452 0.086 0.21-0.048 0.427-0.178 0.575-0.307 0.091-0.081 0.177-0.17 0.267-0.265 0.088-0.094 0.181-0.196 0.278-0.291 0.193-0.19 0.418-0.373 0.711-0.468 0.154-0.055 0.289 0.026 0.351 0.127 0.057 0.095 0.072 0.25-0.048 0.357l0.001 0.001c-0.233 0.225-0.447 0.401-0.665 0.626l-0.004 0.005-0.001-0.001c-0.206 0.199-0.428 0.445-0.713 0.623-0.455 0.292-1.132 0.412-1.632 0.020v-0.001c-0.296-0.23-0.374-0.525-0.376-0.81-0.001-0.139 0.016-0.279 0.033-0.409 0.018-0.133 0.036-0.253 0.043-0.369 0.008-0.132 0.011-0.274-0.003-0.41-0.014-0.138-0.046-0.257-0.099-0.347l-0.003-0.007-0.003-0.006c-0.017 0.001-0.038 0.004-0.075 0.010-0.036 0.006-0.087 0.014-0.141 0.014-0.153-0-0.27-0.075-0.355-0.141l-0.007-0.006-0.007-0.007c-0.053-0.052-0.094-0.111-0.124-0.154-0.017-0.024-0.030-0.043-0.043-0.060l-0.036-0.041c-0.021-0.020-0.079-0.041-0.167-0.029l-0.001 0.001c-0.096 0.012-0.189 0.049-0.317 0.090-0.115 0.038-0.262 0.080-0.414 0.059h-0.002c-0.163-0.024-0.279-0.124-0.34-0.249-0.059-0.12-0.069-0.261-0.036-0.387l0.001-0.003 0.039-0.108c0.047-0.103 0.115-0.192 0.181-0.267 0.044-0.049 0.092-0.097 0.138-0.141l0.124-0.118c0.4-0.4 0.862-0.753 1.338-1.044l0.006-0.004h0.001c0.098-0.054 0.228-0.132 0.355-0.194 0.005-0.003 0.010-0.006 0.015-0.009-0.034-0.013-0.069-0.026-0.106-0.037l-0.201-0.052c-0.287-0.062-0.574-0.049-0.891-0.041-0.309 0.008-0.644 0.009-0.978-0.099h-0.001c-0.265-0.088-0.517-0.229-0.743-0.342-0.234-0.117-0.453-0.21-0.685-0.236v-0.001c-0.011-0.001-0.022-0.003-0.033-0.006l-0.090 0.028-0.010-0.061c-0.098-0.050-0.165-0.141-0.183-0.245-0.015-0.087 0.007-0.175 0.059-0.245-0.043-0.017-0.079-0.029-0.089-0.033l-0.012-0.003-0.011-0.006c-0.093-0.045-0.179-0.105-0.245-0.187-0.008-0.011-0.015-0.022-0.022-0.033l-0.161-0.021 0.1-0.096c-0.017-0.046-0.028-0.095-0.033-0.147v-0.001c-0-0.003-0-0.006-0.001-0.009-0.063-0.008-0.121-0.035-0.165-0.082-0.054-0.058-0.076-0.129-0.081-0.189-0.010-0.107 0.030-0.264 0.165-0.338l0.029-0.016 0.033-0.004c0.452-0.058 0.942-0.151 1.424-0.151z"></path>
<path d="M40.012 17.333c0.099-0.007 0.199 0.008 0.3 0.047l0.101 0.048 0.006 0.003 0.045 0.033c0.042 0.037 0.074 0.085 0.088 0.141 0.019 0.072 0.006 0.141-0.020 0.197-0.051 0.106-0.171 0.193-0.317 0.176l-0.007-0.001c-0.072-0.012-0.145 0.014-0.234 0.082-0.098 0.075-0.169 0.162-0.272 0.262l-0.005 0.005-0.001-0.001c-0.159 0.14-0.308 0.224-0.477 0.289l-0.176 0.061c-0.083 0.027-0.138 0.083-0.182 0.172-0.048 0.096-0.074 0.209-0.107 0.337l-0.001 0.005c-0.073 0.253-0.087 0.486-0.12 0.753l-0.001 0.006c-0.049 0.312-0.229 0.499-0.463 0.594-0.219 0.088-0.477 0.094-0.702 0.078v-0.001c-0.123-0.006-0.216 0.005-0.301 0.029-0.087 0.024-0.174 0.065-0.285 0.129-0.154 0.099-0.322 0.216-0.526 0.289l-0.091 0.029c-0.065 0.018-0.127 0.028-0.183 0.037-0.059 0.009-0.105 0.014-0.153 0.023-0.090 0.016-0.151 0.039-0.202 0.084l-0.006 0.005-0.007 0.005c-0.045 0.032-0.083 0.075-0.136 0.133-0.048 0.054-0.111 0.123-0.19 0.18l0.001 0.001c-0.163 0.122-0.366 0.207-0.599 0.167v0.001c-0.056-0.009-0.123-0.028-0.164-0.039-0.049-0.012-0.087-0.020-0.119-0.020-0.020 0-0.046 0.005-0.083 0.018-0.041 0.014-0.070 0.027-0.12 0.046-0.151 0.067-0.362 0.177-0.592 0.177-0.073 0-0.138-0.007-0.196-0.014-0.060-0.007-0.105-0.014-0.151-0.017-0.083-0.006-0.156-0-0.244 0.041-0.209 0.108-0.408 0.235-0.611 0.37-0.201 0.133-0.409 0.274-0.622 0.404l0.001 0.001c-0.107 0.067-0.211 0.133-0.317 0.201s-0.211 0.136-0.321 0.205l-0.001-0.001c-0.098 0.063-0.218 0.126-0.313 0.18-0.077 0.044-0.145 0.086-0.199 0.129l-0.050 0.044c-0.002 0.002-0.008 0.013-0.013 0.041-0.006 0.036-0.005 0.085 0.001 0.144 0.013 0.123 0.041 0.232 0.060 0.339l0.072 0.287c0.013 0.047 0.027 0.093 0.042 0.139l0.050 0.137 0.001 0.002 0.059 0.143c0.127 0.284 0.301 0.557 0.511 0.793l0.107 0.115 0.005 0.004v0.001c0.056 0.060 0.131 0.129 0.209 0.173 0.081 0.046 0.132 0.049 0.163 0.037l0.007-0.003 0.026-0.012c0.027-0.017 0.057-0.050 0.105-0.112 0.050-0.066 0.133-0.185 0.257-0.252 0.203-0.116 0.495-0.126 0.7 0.041l0.001-0.001c0.002 0.002 0.004 0.004 0.006 0.005s0.003 0.002 0.005 0.003h-0.001c0.030 0.023 0.055 0.049 0.076 0.075 0.040-0.029 0.081-0.054 0.118-0.075 0.105-0.057 0.216-0.099 0.291-0.123 0.196-0.068 0.407-0.085 0.617-0.053h0.001l0.011 0.001h-0.001c0.094 0.010 0.199 0.038 0.291 0.095 0.098 0.061 0.185 0.159 0.211 0.3l0.009 0.095c-0.001 0.091-0.030 0.168-0.067 0.234-0.043 0.077-0.11 0.154-0.146 0.2l-0.005 0.006-0.001-0.001c-0.037 0.044-0.051 0.093-0.063 0.178-0.011 0.077-0.022 0.208-0.086 0.33l-0.001-0.001c-0.084 0.176-0.239 0.302-0.363 0.392l-0.005 0.003c-0.18 0.121-0.373 0.188-0.57 0.235l-0.005 0.001-0.005 0.001c-0.069 0.012-0.184 0.038-0.282 0.050-0.105 0.013-0.229 0.015-0.351-0.027l-0.003-0.001c-0.136-0.051-0.24-0.147-0.31-0.207-0.080-0.067-0.132-0.103-0.194-0.116l-0.005-0.001c-0.123-0.030-0.259 0.006-0.389 0.093-0.125 0.095-0.225 0.209-0.357 0.34-0.125 0.125-0.273 0.256-0.468 0.338l0.001 0.001c-0.213 0.093-0.437 0.090-0.629 0.074-0.051-0.004-0.105-0.012-0.148-0.017-0.046-0.006-0.086-0.009-0.122-0.009-0.069 0-0.112 0.013-0.147 0.043l-0.012 0.011-0.014 0.008c-0.108 0.063-0.242 0.043-0.327-0.044-0.091-0.094-0.096-0.228-0.043-0.344l0.006-0.014 0.009-0.012c0.166-0.241 0.395-0.301 0.598-0.322 0.090-0.009 0.206-0.013 0.283-0.018 0.087-0.007 0.163-0.018 0.232-0.041 0.139-0.051 0.248-0.161 0.384-0.316 0.127-0.143 0.283-0.332 0.498-0.44l0.003-0.002c-0.099-0.037-0.19-0.087-0.273-0.145-0.182-0.128-0.334-0.295-0.453-0.441l-0.107-0.133c-0.241-0.314-0.42-0.659-0.561-1.011v-0.001c-0.098-0.236-0.164-0.473-0.197-0.727l-0.024-0.149c-0.025-0.16-0.046-0.353-0.005-0.53l0.033-0.109c0.094-0.235 0.305-0.345 0.449-0.438l0.005-0.003 0.3-0.185c0.101-0.064 0.204-0.129 0.308-0.19 0.21-0.135 0.419-0.266 0.628-0.396 0.21-0.131 0.419-0.262 0.628-0.397 0.184-0.123 0.401-0.295 0.664-0.379l0.007-0.003 0.18-0.043c0.068-0.011 0.141-0.017 0.217-0.007h-0.001c0.073 0.002 0.138 0.014 0.188 0.024 0.061 0.012 0.098 0.019 0.132 0.019 0.060 0 0.128-0.023 0.223-0.067 0.084-0.039 0.202-0.102 0.319-0.137l0.007-0.002 0.008-0.001c0.258-0.053 0.437 0.001 0.624 0.043 0.028 0.004 0.053-0.002 0.093-0.034 0.051-0.042 0.086-0.091 0.154-0.166l0.008-0.008c0.105-0.101 0.236-0.23 0.41-0.305l0.012-0.004c0.13-0.045 0.264-0.058 0.368-0.072 0.11-0.015 0.198-0.031 0.279-0.070 0.077-0.041 0.152-0.088 0.234-0.141 0.081-0.052 0.169-0.109 0.262-0.158h0.001l0.086-0.041c0.173-0.077 0.349-0.116 0.535-0.116l0.094 0.003 0.003 0.001 0.154 0.018c0.053 0.007 0.103 0.012 0.151 0.013 0.102 0.002 0.155-0.018 0.182-0.043l0.012-0.019c0.004-0.011 0.008-0.027 0.012-0.051s0.006-0.050 0.008-0.082c0.002-0.030 0.004-0.069 0.009-0.105l0.001-0.003 0.047-0.315 0.001-0.005 0.001-0.005c0.048-0.232 0.114-0.47 0.214-0.696 0.085-0.196 0.216-0.405 0.457-0.522l0.008-0.003 0.007-0.003 0.16-0.052c0.050-0.015 0.093-0.027 0.134-0.041 0.078-0.027 0.138-0.058 0.191-0.109l0.007-0.007 0.225-0.203c0.080-0.071 0.17-0.145 0.27-0.203s0.215-0.106 0.344-0.115zM33.754 25.987c-0.085 0.036-0.157 0.083-0.232 0.156l-0.009 0.009-0.010 0.008c-0.012 0.009-0.025 0.019-0.041 0.031s-0.033 0.027-0.052 0.041c-0.019 0.014-0.041 0.029-0.066 0.044l-0.082 0.040c-0.264 0.102-0.481-0.062-0.582-0.218l-0.001-0.003c-0.008-0.013-0.015-0.027-0.022-0.040-0.022 0.026-0.041 0.051-0.067 0.085l-0.004 0.006-0.005 0.006c-0.058 0.063-0.125 0.122-0.2 0.172 0.047 0.010 0.094 0.023 0.137 0.038l0.167 0.071 0.010 0.005 0.009 0.005c0.059 0.038 0.112 0.085 0.153 0.121 0.042 0.037 0.074 0.064 0.106 0.086 0.004 0.002 0.021 0.007 0.057 0.006 0.041-0.001 0.092-0.008 0.15-0.022 0.115-0.027 0.233-0.071 0.311-0.101l0.006-0.003 0.061-0.024c0.054-0.025 0.088-0.051 0.109-0.077 0.027-0.033 0.049-0.081 0.055-0.167l0.001-0.003 0.024-0.158c0.008-0.038 0.020-0.077 0.033-0.116-0.004 0.001-0.009 0.002-0.014 0.003z"></path>
<path d="M31.459 6.433c0.076-0.019 0.169-0.017 0.252 0.027 0.068 0.036 0.118 0.093 0.145 0.166l0.020 0.077v0.001l0.022 0.104c0.029 0.103 0.079 0.205 0.134 0.33 0.069 0.155 0.146 0.345 0.126 0.566l-0.001 0.001c-0.009 0.096-0.038 0.199-0.052 0.263-0.016 0.073-0.023 0.129-0.013 0.186 0.018 0.092 0.061 0.174 0.122 0.235l0.067 0.054 0.003 0.002 0.043 0.027c0.104 0.055 0.222 0.068 0.329 0.039 0.035-0.009 0.070-0.021 0.111-0.035 0.039-0.014 0.085-0.030 0.133-0.043 0.075-0.021 0.158-0.035 0.253-0.028l0.099 0.014 0.006 0.001-0.041 0.158 0.041-0.157c0.208 0.055 0.375 0.181 0.51 0.282l0.060 0.039c0.012 0.007 0.025 0.012 0.038 0.018l0.001-0.005 0.082 0.022c0.096-0.088 0.229-0.115 0.338-0.093 0.068 0.014 0.141 0.048 0.195 0.111 0.026 0.030 0.044 0.064 0.056 0.101 0.035-0.015 0.069-0.031 0.094-0.043 0.12-0.072 0.251-0.151 0.4-0.214l0.225-0.086c0.228-0.078 0.463-0.128 0.698-0.152l0.008-0.001c0.276-0.016 0.602 0.011 0.828 0.303h0.001c0.105 0.126 0.182 0.264 0.25 0.383 0.071 0.124 0.133 0.228 0.213 0.318 0.163 0.171 0.337 0.324 0.537 0.448h-0.001c0.022 0.012 0.048 0.026 0.069 0.039 0.026 0.015 0.054 0.031 0.081 0.046 0.003-0.009 0.006-0.018 0.009-0.026 0.005-0.014 0.012-0.030 0.020-0.046 0.005-0.010 0.015-0.028 0.031-0.047h-0.001c0.12-0.154 0.29-0.181 0.428-0.172 0.132 0.009 0.267 0.055 0.354 0.083h-0.001c0.274 0.078 0.547 0.186 0.802 0.309h-0.001c0.136 0.058 0.285 0.122 0.42 0.203 0.073 0.044 0.114 0.071 0.157 0.086 0.030 0.011 0.044 0.008 0.060-0.001 0.102-0.061 0.226-0.105 0.356-0.086 0.125 0.018 0.226 0.090 0.3 0.197l0.030 0.048 0.005 0.009 0.004 0.010c0.020 0.049 0.038 0.118 0.047 0.151 0.006 0.021 0.011 0.038 0.016 0.050 0.001 0.002 0.002 0.004 0.003 0.006l0.001 0.001c0.008 0.002 0.020 0.005 0.037 0.007 0.015 0.002 0.039 0.005 0.061 0.010 0.086 0.014 0.16 0.016 0.267 0.027 0.1 0.010 0.212 0.027 0.328 0.073l0.084 0.040c0.186 0.102 0.304 0.264 0.403 0.383l0.044 0.048c0.006 0.006 0.011 0.009 0.014 0.012 0.003-0.001 0.009-0.001 0.016-0.004l0.006-0.002 0.007-0.002c0.031-0.009 0.060-0.023 0.109-0.051 0.042-0.024 0.102-0.058 0.175-0.079v-0.001c0.204-0.072 0.494-0.054 0.668 0.158l0.033 0.045 0.003 0.004 0.035 0.069c0.067 0.159 0.026 0.308-0.011 0.413-0.025 0.070-0.042 0.107-0.058 0.162-0.007 0.023-0.012 0.044-0.015 0.063l-0.003 0.050 0.001 0.001 0.020 0.167c0.009 0.054 0.019 0.111 0.029 0.181 0.017 0.128 0.024 0.273-0.025 0.434l-0.001-0.001c-0.073 0.245-0.218 0.456-0.416 0.612l-0.001-0.001c-0.059 0.054-0.122 0.095-0.187 0.128l0.048 0.094c0.063 0.015 0.127 0.029 0.193 0.043l-0.001 0.001c0.101 0.019 0.175 0.081 0.215 0.162 0.038 0.077 0.041 0.161 0.029 0.232-0.014 0.087-0.046 0.159-0.088 0.219l0.044 0.085-0.095-0.023c-0.052 0.054-0.113 0.097-0.178 0.128-0.142 0.067-0.306 0.087-0.435 0.095l-0.001-0.001c-0.088 0.008-0.125 0.015-0.149 0.026-0.008 0.004-0.013 0.007-0.017 0.012s-0.014 0.019-0.024 0.046l-0.001 0.001c-0.001 0.001-0.001 0.003-0.001 0.005 0.061 0.020 0.118 0.051 0.17 0.090h0.001c0.305 0.21 0.294 0.569 0.294 0.774 0 0.055 0.004 0.085 0.011 0.105 0.005 0.014 0.012 0.028 0.033 0.045 0.034 0.026 0.086 0.065 0.128 0.116 0.036 0.045 0.063 0.097 0.079 0.158l0.012 0.065 0.001 0.005 0.001 0.005c0.013 0.184-0.086 0.32-0.156 0.409-0.041 0.052-0.069 0.083-0.099 0.124-0.025 0.034-0.040 0.061-0.048 0.083-0.020 0.084-0.031 0.178-0.044 0.285-0.013 0.106-0.028 0.225-0.058 0.338-0.061 0.236-0.191 0.472-0.503 0.588l-0.005 0.001c-0.162 0.055-0.335 0.062-0.488 0.058-0.078-0.002-0.155-0.007-0.226-0.012-0.072-0.004-0.138-0.007-0.198-0.007-0.316 0-0.619-0.016-0.94-0.062v0.001c-0.001-0-0.001-0.001-0.002-0.001h-0.002v-0.001c-0.065-0.009-0.138-0.039-0.183-0.109s-0.044-0.149-0.026-0.207c0.033-0.11 0.131-0.195 0.244-0.231l0.016-0.005 0.016-0.002c0.481-0.062 0.948-0.046 1.408-0.046 0.102 0 0.156-0.012 0.19-0.029 0.025-0.013 0.054-0.038 0.082-0.111 0.039-0.128 0.054-0.272 0.069-0.438l0.001-0.008 0.001-0.008c0.029-0.153 0.065-0.382 0.207-0.558l0.007-0.008 0.008-0.008c0-0 0.001-0.001 0.001-0.002-0.003-0.003-0.006-0.008-0.010-0.014v0.001c-0.137-0.154-0.154-0.366-0.168-0.486v-0.001c-0.009-0.059-0.009-0.119-0.009-0.162 0-0.042-0.002-0.071-0.005-0.096-0.063 0.018-0.128 0.022-0.189 0.007-0.106-0.026-0.21-0.103-0.245-0.236l-0.001-0.003c-0.003-0.014-0.006-0.027-0.009-0.041l-0.137-0.043 0.109-0.106c-0.031-0.232-0.011-0.496 0.16-0.721 0.039-0.052 0.085-0.098 0.137-0.137-0.021-0.013-0.042-0.027-0.061-0.043l-0.007-0.005 0.001-0.001c-0.141-0.124-0.19-0.293-0.166-0.452 0.023-0.153 0.111-0.295 0.239-0.389 0.070-0.055 0.147-0.084 0.211-0.105 0.080-0.026 0.114-0.031 0.177-0.054l0.006-0.002 0.082-0.031c0.077-0.036 0.142-0.085 0.192-0.15l0.002-0.002 0.050-0.073c0.096-0.168 0.052-0.328 0.007-0.618l-0.001-0.007c-0.013-0.115-0.007-0.222 0.017-0.33-0.031 0.014-0.064 0.029-0.096 0.041-0.12 0.045-0.263 0.075-0.436 0.015v0.001c-0.148-0.044-0.245-0.138-0.317-0.222-0.034-0.040-0.068-0.085-0.094-0.119l-0.081-0.092c-0.1-0.097-0.225-0.1-0.452-0.117h-0.001c-0.198-0.016-0.446-0.066-0.618-0.272l-0.004-0.005c-0.026-0.034-0.052-0.075-0.075-0.121l-0.006 0.002-0.007 0.002c-0.189 0.043-0.361-0.014-0.497-0.078-0.068-0.033-0.134-0.071-0.192-0.104l-0.158-0.086c-0.276-0.133-0.55-0.251-0.839-0.353l-0.004-0.001c-0.024-0.009-0.049-0.020-0.071-0.030-0.023-0.010-0.044-0.019-0.064-0.027-0.007-0.003-0.014-0.005-0.020-0.007-0.026 0.062-0.072 0.155-0.164 0.221l-0.056 0.033c-0.162 0.078-0.328 0.062-0.463 0.021-0.133-0.041-0.255-0.111-0.342-0.164v-0.001c-0.46-0.27-0.84-0.651-1.103-1.112l-0.003-0.007c-0.018-0.034-0.035-0.070-0.048-0.099-0.015-0.031-0.027-0.058-0.041-0.081-0.027-0.047-0.049-0.065-0.066-0.073l-0.008-0.004v-0.001c-0.015-0.008-0.044-0.015-0.1-0.014-0.057 0.002-0.113 0.010-0.185 0.019-0.287 0.042-0.558 0.138-0.8 0.289l0.001 0.001c-0.088 0.057-0.204 0.135-0.331 0.187-0.114 0.047-0.248 0.078-0.394 0.058l-0.064-0.012c-0.089-0.021-0.179-0.065-0.257-0.127-0.070 0.009-0.139 0.009-0.206-0.001-0.212-0.032-0.415-0.145-0.571-0.255v0.001c-0.11-0.070-0.152-0.103-0.206-0.107-0.026 0.005-0.058 0.017-0.109 0.038-0.050 0.021-0.125 0.053-0.206 0.065l-0.001-0.001c-0.227 0.033-0.46 0.018-0.68-0.071v-0.001c-0.458-0.178-0.752-0.637-0.715-1.12v-0.006l0.001-0.006c0.009-0.061 0.022-0.118 0.033-0.167 0.012-0.052 0.023-0.094 0.029-0.135 0.012-0.078 0.010-0.139-0.018-0.202l-0.003-0.006c-0.037-0.092-0.080-0.169-0.13-0.278-0.047-0.1-0.094-0.216-0.113-0.346l-0.001-0.001c-0.031-0.226 0.138-0.37 0.286-0.407z"></path>
<path d="M27.405 1.238c0.217-0.046 0.458-0.015 0.659 0.096l0.090 0.054c0.201 0.135 0.33 0.323 0.427 0.51 0.055 0.107 0.102 0.217 0.145 0.319l0.126 0.288 0.001 0.001 0.035 0.067c0.062 0.105 0.14 0.187 0.24 0.266l0.132 0.094 0.001 0.001 0.065 0.047c0.129 0.1 0.248 0.235 0.291 0.421l0.015 0.097 0.001 0.008-0.003 0.113c-0.026 0.253-0.168 0.44-0.344 0.573-0.085 0.064-0.181 0.114-0.277 0.159 0.109 0.313 0.157 0.644 0.139 0.977 0.218-0.021 0.448-0.014 0.665 0.063l0.085 0.037c0.026 0.014 0.051 0.027 0.073 0.041 0.053 0.032 0.075 0.049 0.117 0.073 0.068 0.040 0.099 0.045 0.124 0.039 0.077-0.020 0.143-0.046 0.229-0.075 0.081-0.027 0.173-0.055 0.278-0.065l0.067-0.004c0.159-0.004 0.34 0.039 0.478 0.172l0.050 0.056c0.045 0.059 0.074 0.126 0.091 0.19l0.012 0.079c0.002 0.023 0.002 0.033 0.003 0.046 0.009 0.006 0.022 0.016 0.044 0.031 0.033 0.022 0.085 0.057 0.127 0.111l0.041 0.058c0.025 0.039 0.047 0.079 0.063 0.122l0.020 0.065 0.001 0.004 0.012 0.070c0.019 0.16-0.025 0.3-0.090 0.425l-0.003 0.006-0.004 0.005c-0.049 0.078-0.123 0.129-0.209 0.143-0.082 0.013-0.162-0.009-0.224-0.052-0.132-0.092-0.179-0.27-0.089-0.439-0.008-0.005-0.018-0.012-0.031-0.020-0.023-0.013-0.064-0.036-0.099-0.060l-0.005-0.003-0.005-0.004c-0.125-0.1-0.19-0.225-0.215-0.374-0.004 0.001-0.009 0.002-0.014 0.003l-0.001-0.001c-0.048 0.012-0.095 0.031-0.153 0.053-0.057 0.022-0.125 0.048-0.2 0.067l-0.010 0.003-0.010 0.001c-0.137 0.017-0.293 0.019-0.453-0.039l-0.007-0.003c-0.068-0.028-0.129-0.065-0.178-0.094-0.050-0.030-0.089-0.052-0.128-0.069-0.176-0.054-0.363-0.030-0.577 0.013l-0.033 0.124-0.1-0.096c-0.016 0.003-0.033 0.007-0.050 0.011l-0.001-0.001c-0.246 0.071-0.451-0.145-0.431-0.372l0.007-0.047c0.003-0.014 0.005-0.027 0.008-0.041l-0.099-0.095 0.121-0.027c0.044-0.302 0.022-0.601-0.071-0.89l-0.064 0.019 0.035-0.102c-0.025-0.067-0.052-0.135-0.086-0.201l-0.026-0.069c-0.020-0.072-0.018-0.149 0.008-0.219 0.035-0.099 0.117-0.184 0.238-0.215l0.13-0.035c0.005-0.001 0.009-0.003 0.014-0.005l0.037-0.106 0.043 0.082c0.009-0.003 0.018-0.005 0.027-0.008 0.077-0.028 0.133-0.059 0.171-0.095l0.037-0.048c0.009-0.015 0.013-0.029 0.015-0.040 0.001-0.009 0-0.014-0.001-0.016s-0.002-0.007-0.012-0.014l-0.004-0.003-0.004-0.004c-0.032-0.030-0.075-0.059-0.137-0.098-0.056-0.035-0.131-0.080-0.196-0.134l-0.005-0.004-0.005-0.005c-0.12-0.116-0.228-0.253-0.302-0.412v-0.001c-0.081-0.151-0.142-0.322-0.198-0.459-0.060-0.147-0.121-0.269-0.207-0.365l-0.048-0.044c-0.055-0.042-0.126-0.078-0.191-0.090-0.017-0.003-0.032-0.004-0.045-0.004l0.007 0.013h-0.059c-0.004 0.002-0.008 0.004-0.012 0.007l-0.025 0.034c-0.069 0.133-0.204 0.181-0.315 0.178-0.108-0.003-0.232-0.055-0.3-0.17l-0.003-0.005c-0.012-0.022-0.032-0.041-0.084-0.045h-0.029c-0.015 0-0.032 0.001-0.052 0.003-0.113 0.017-0.241 0.071-0.344 0.117l-0.001-0.001c-0.257 0.137-0.563 0.29-0.923 0.235l-0.073-0.014c-0.083-0.019-0.168-0.054-0.238-0.083-0.077-0.031-0.14-0.057-0.198-0.073s-0.087-0.013-0.101-0.009c-0.005 0.002-0.023 0.006-0.045 0.054l-0.001 0.002c-0.102 0.209-0.189 0.437-0.409 0.623l-0.103 0.077-0.005 0.003c-0.246 0.152-0.549 0.24-0.859 0.205v-0.001c-0.185-0.019-0.349-0.108-0.468-0.166-0.132-0.064-0.224-0.098-0.318-0.089-0.109 0.013-0.217 0.044-0.332 0.085-0.105 0.037-0.242 0.093-0.359 0.131-0.188 0.062-0.396 0.105-0.623 0.060-0.32 0.284-0.499 0.668-0.596 1.102-0.11 0.489-0.114 1.022-0.114 1.512 0 0.118-0.003 0.342-0.069 0.526-0.034 0.094-0.091 0.198-0.192 0.266-0.107 0.073-0.238 0.088-0.377 0.052v0.001c-0.266-0.067-0.377-0.274-0.431-0.457-0.027-0.090-0.043-0.185-0.056-0.266-0.014-0.085-0.025-0.153-0.041-0.209l-0.001-0.005c-0.059-0.228-0.154-0.432-0.319-0.546l-0.005-0.004c-0.069-0.051-0.121-0.060-0.173-0.056-0.064 0.005-0.137 0.031-0.249 0.077l-0.002 0.001c-0.166 0.067-0.441 0.181-0.704 0.033-0.003 0.004-0.007 0.008-0.010 0.012l0.001 0.001c-0.001 0.002-0.003 0.003-0.005 0.004s-0.003 0.004-0.004 0.005l-0.001-0.001c-0.115 0.125-0.277 0.247-0.459 0.284-0.096 0.020-0.202 0.017-0.304-0.027s-0.188-0.124-0.253-0.231l-0.003-0.005-0.003-0.005c-0.054-0.105-0.070-0.23-0.083-0.304-0.015-0.084-0.029-0.128-0.050-0.158-0.020-0.019-0.054-0.034-0.106-0.033-0.057 0.001-0.111 0.021-0.143 0.044l-0.005 0.003c-0.067 0.045-0.113 0.106-0.16 0.193-0.024 0.045-0.045 0.090-0.072 0.145-0.026 0.052-0.055 0.11-0.092 0.167l-0.005 0.008-0.006 0.007c-0.131 0.162-0.388 0.298-0.635 0.169l-0.049-0.029c-0.137-0.093-0.173-0.228-0.191-0.313-0.021-0.096-0.026-0.127-0.047-0.154-0.005-0.004-0.019-0.012-0.042-0.014-0.026-0.002-0.041 0.007-0.046 0.012l-0.005 0.005-0.115-0.13 0.115 0.13c-0.177 0.157-0.394 0.098-0.511-0.018-0.059-0.058-0.104-0.14-0.111-0.234-0.008-0.098 0.027-0.194 0.105-0.27h-0.001l0.003-0.003h0.001c0.186-0.187 0.446-0.245 0.68-0.209 0.173 0.027 0.344 0.109 0.472 0.241 0.101-0.131 0.227-0.253 0.392-0.339l0.102-0.046c0.379-0.149 0.903-0.046 1.12 0.359l0.039 0.085 0.003 0.006h-0.001c0.010 0.030 0.017 0.061 0.024 0.090 0.009-0.011 0.020-0.025 0.033-0.038l0.054-0.047c0.13-0.103 0.311-0.175 0.509-0.098h0.001c0.002 0.001 0.003 0.002 0.005 0.002 0.003 0.001 0.007 0.002 0.010 0.003h-0.001c0.071 0.026 0.13 0.071 0.154 0.087 0.007 0.005 0.012 0.009 0.017 0.012 0.014-0.006 0.035-0.013 0.062-0.027 0.037-0.019 0.096-0.053 0.146-0.073 0.515-0.236 1.001-0.014 1.303 0.359l0.058 0.077 0.003 0.004 0.025 0.041c0.065-0.869 0.323-1.826 1.094-2.424h0.001l0.043-0.031c0.045-0.028 0.097-0.050 0.155-0.058 0.078-0.011 0.153 0.004 0.221 0.042h0.001c0.048 0.025 0.113 0.029 0.207 0.007 0.099-0.023 0.193-0.065 0.306-0.107l0.003-0.001 0.165-0.057c0.174-0.059 0.375-0.118 0.577-0.118h0.005l0.005 0.001c0.151 0.009 0.28 0.050 0.395 0.097 0.057 0.023 0.112 0.049 0.163 0.073s0.1 0.046 0.149 0.067c0.146 0.053 0.308 0.034 0.455-0.048 0.061-0.037 0.111-0.093 0.162-0.172 0.057-0.089 0.092-0.166 0.156-0.276 0.056-0.098 0.129-0.208 0.235-0.291 0.111-0.088 0.25-0.139 0.424-0.139 0.149 0 0.283 0.043 0.394 0.084 0.089 0.032 0.162 0.062 0.235 0.082l0.073 0.018 0.003 0.001 0.068 0.007c0.069 0 0.143-0.019 0.229-0.056 0.057-0.024 0.115-0.054 0.179-0.086 0.061-0.031 0.129-0.065 0.197-0.094v-0.001c0.195-0.085 0.441-0.134 0.671-0.105 0.097 0.012 0.195 0.040 0.285 0.086 0.074-0.040 0.154-0.068 0.234-0.085z"></path>
<path d="M6.959 2.823c0.441-0.001 0.885 0.013 1.319 0.036h0.002l0.447 0.035c0.893 0.080 1.778 0.229 2.645 0.454l0.438 0.12 0.174 0.056c0.18 0.063 0.373 0.154 0.52 0.351h-0.001c0.036 0.045 0.071 0.101 0.092 0.132 0.028 0.041 0.046 0.062 0.062 0.074l0.018 0.009c0.024 0.008 0.068 0.012 0.148 0.001h0.001l0.189-0.016c0.145-0.004 0.297 0.016 0.442 0.094 0.050-0.135 0.185-0.192 0.283-0.202 0.101-0.011 0.248 0.019 0.331 0.137l0.052-0.014c0.002-0.001 0.005-0.002 0.008-0.003 0.050-0.029 0.096-0.062 0.158-0.102 0.051-0.033 0.124-0.080 0.198-0.099l0.008-0.002 0.009-0.001 0.099-0.007c0.101 0.001 0.206 0.030 0.299 0.101l-0.001 0.001c0.078 0.054 0.125 0.127 0.158 0.192l0.008 0.022c0.119 0.025 0.274 0.114 0.291 0.298l0.001 0.016-0.001 0.016c-0.012 0.13-0.076 0.243-0.18 0.312s-0.231 0.084-0.353 0.049l-0.007-0.002-0.008-0.003c-0.104-0.040-0.194-0.104-0.262-0.191l-0.009-0.012-0.006-0.011-0.071 0.052c-0.080 0.046-0.209 0.113-0.352 0.113-0.052 0-0.102-0.006-0.152-0.016-0.075 0.1-0.171 0.186-0.291 0.252l-0.046 0.081-0.040-0.039c-0.138 0.054-0.285 0.018-0.381-0.068-0.070-0.063-0.115-0.154-0.114-0.253-0.019-0.003-0.025-0.003-0.019-0.003-0.052 0-0.102 0.007-0.171 0.013-0.062 0.006-0.136 0.009-0.215 0.001v0.001c-0.286-0.020-0.482-0.18-0.625-0.369l-0.005-0.006v-0.001c-0.059-0.085-0.084-0.13-0.117-0.163l-0.036-0.029c-0.022-0.014-0.057-0.027-0.113-0.041-0.027-0.007-0.055-0.012-0.086-0.019-0.030-0.007-0.063-0.014-0.095-0.023l-0.001-0.001c-0.258-0.073-0.533-0.132-0.814-0.192h-0.001c-1.018-0.223-2.050-0.357-3.082-0.387h-0.001c-0.447-0.015-0.905-0.015-1.36 0.029-0.166 0.022-0.337 0.054-0.49 0.109-0.154 0.056-0.277 0.131-0.359 0.233l-0.003 0.003c-0.039 0.046-0.073 0.102-0.109 0.17-0.032 0.060-0.076 0.148-0.115 0.219-0.087 0.154-0.21 0.322-0.435 0.411l0.001 0.001c-0.265 0.106-0.506-0.008-0.664-0.077-0.003-0.001-0.006-0.002-0.009-0.003-0.005 0.014-0.010 0.032-0.015 0.056l-0.001 0.003c-0.032 0.153-0.018 0.336 0.027 0.531 0.022 0.096 0.051 0.193 0.082 0.286l0.1 0.268 0.001 0.003 0.059 0.139c0.115 0.248 0.275 0.478 0.461 0.686l0.098-0.021-0.029 0.096c0.033 0.035 0.067 0.069 0.101 0.103l0.035 0.039c0.072 0.096 0.080 0.217 0.054 0.312-0.023 0.082-0.077 0.168-0.164 0.219 0.007 0.014 0.013 0.030 0.021 0.045 0.007 0.014 0.015 0.027 0.022 0.039 0.005 0.009 0.011 0.019 0.016 0.029h0.001c0.085 0.148 0.159 0.323 0.178 0.521h-0.001c0.035 0.327-0.054 0.661-0.344 0.887l0.001 0.001c-0.12 0.096-0.26 0.154-0.415 0.173l-0.011 0.001h-0.010c-0.032 0-0.063-0.002-0.089-0.005-0.029-0.003-0.048-0.005-0.070-0.007-0.042-0.003-0.056-0.001-0.058 0l-0.015 0.006h-0.003c-0.004 0.003-0.010 0.010-0.019 0.020-0.011 0.012-0.022 0.027-0.035 0.044-0.011 0.015-0.027 0.038-0.041 0.055l-0.003 0.003c-0.236 0.288-0.487 0.575-0.736 0.86l-0.001-0.001c-0.235 0.286-0.483 0.573-0.731 0.856l-0.003 0.003c-0.18 0.196-0.357 0.381-0.51 0.575l-0.143 0.198c-0.18 0.277-0.211 0.575-0.158 0.885 0.054 0.314 0.191 0.631 0.338 0.936l0.024 0.058c0.039 0.123 0.028 0.288-0.094 0.389l-0.071 0.046c-0.068 0.033-0.135 0.052-0.202 0.061l-0.044 0.259-0.124-0.259c-0.071-0.010-0.139-0.031-0.204-0.056l-0.007-0.003-0.006-0.003c-0.010-0.005-0.020-0.011-0.026-0.014s-0.015-0.008-0.022-0.012l-0.001-0.001c-0.005 0.012-0.010 0.026-0.016 0.039-0.008 0.020-0.020 0.048-0.032 0.071l0.001 0.001c-0.216 0.447-0.421 0.886-0.639 1.323-0.015 0.035-0.032 0.070-0.046 0.096-0.017 0.033-0.029 0.059-0.038 0.083-0.016 0.045-0.007 0.050-0.007 0.050l0.029 0.031c0.014 0.012 0.032 0.026 0.056 0.043l0.16 0.113 0.001 0.001-0.096 0.118 0.096-0.117c0.101 0.082 0.198 0.161 0.296 0.24s0.193 0.157 0.293 0.238h0.001c0.046 0.037 0.132 0.116 0.215 0.187 0.090 0.078 0.192 0.16 0.291 0.226 0.104 0.069 0.187 0.106 0.242 0.114 0.024 0.003 0.033-0.001 0.033-0.001s0.001-0.001 0.003-0.002 0.007-0.008 0.012-0.018l0.003-0.005 0.045-0.063c0.050-0.057 0.116-0.092 0.187-0.105 0.090-0.016 0.176 0.007 0.245 0.046s0.131 0.103 0.162 0.187c0.025 0.067 0.029 0.14 0.007 0.213l-0.033 0.076-0.003 0.004c-0.164 0.258-0.449 0.368-0.733 0.35v0.001c-0.33-0.019-0.593-0.242-0.768-0.383l-0.399-0.325c-0.132-0.109-0.264-0.217-0.395-0.321l-0.001-0.001c-0.046-0.037-0.101-0.077-0.166-0.124-0.063-0.046-0.133-0.098-0.199-0.154-0.11-0.094-0.234-0.222-0.286-0.385l-0.018-0.072c-0.033-0.188 0.029-0.371 0.095-0.516 0.034-0.075 0.073-0.147 0.108-0.211s0.065-0.119 0.090-0.168c0.071-0.16 0.146-0.317 0.22-0.47s0.147-0.306 0.216-0.461l0.068-0.167c0.025-0.062 0.056-0.131 0.094-0.198 0.075-0.132 0.194-0.274 0.395-0.32l0.015-0.003c0.031-0.004 0.060-0.005 0.088-0.005-0.166-0.437-0.273-0.912-0.156-1.395 0.071-0.313 0.24-0.584 0.427-0.823 0.181-0.231 0.409-0.466 0.575-0.66l0.002-0.002 0.653-0.75c0.218-0.251 0.436-0.503 0.655-0.751l0.001-0.001 0.135-0.159c0.050-0.058 0.104-0.118 0.16-0.167 0.119-0.106 0.269-0.192 0.471-0.197l0.112-0.007c0.032-0.001 0.052-0.002 0.069-0.005 0.024-0.004 0.041-0.010 0.065-0.037 0.043-0.049 0.062-0.133 0.039-0.235l-0.002-0.007c-0.017-0.095-0.066-0.179-0.132-0.305-0.061-0.115-0.135-0.265-0.135-0.447 0-0.085 0.020-0.171 0.056-0.25-0.316-0.357-0.558-0.767-0.715-1.208l-0.001-0.003c-0.071-0.213-0.15-0.478-0.181-0.748-0.031-0.268-0.017-0.559 0.114-0.813l0.043-0.072c0.111-0.163 0.296-0.289 0.518-0.307h0.014c0.105 0 0.207 0.021 0.299 0.055l0.088 0.037 0.005 0.003 0.006 0.003c0.011 0.006 0.022 0.013 0.031 0.019s0.019 0.011 0.027 0.016l0.033 0.017 0.002-0.001 0.022-0.023c0.016-0.022 0.034-0.053 0.054-0.094s0.037-0.083 0.058-0.13c0.018-0.042 0.040-0.092 0.067-0.134 0.107-0.187 0.266-0.356 0.461-0.476l0.153-0.086c0.365-0.182 0.786-0.243 1.164-0.256h0.002l0.438-0.006z"></path>
<path d="M2.651 16.641h0.029c0.001 0 0.014 0 0.026 0.001 0.017 0.002 0.040 0.006 0.065 0.018 0.022 0.011 0.038 0.024 0.045 0.030 0.002 0.002 0.004 0.005 0.006 0.007-0.008-0.006-0.013-0.009 0.005 0.002 0.008 0.005 0.033 0.021 0.054 0.050 0.005 0.007 0.007 0.015 0.011 0.022 0.011 0.016 0.019 0.032 0.025 0.050h0.21l-0.221 0.213c-0.013 0.022-0.027 0.041-0.042 0.056 0.009-0.009 0.024-0.030 0.007-0.005-0.006 0.008-0.022 0.032-0.052 0.052-0.005 0.003-0.011 0.004-0.016 0.007-0.008 0.006-0.018 0.015-0.031 0.021-0.025 0.012-0.048 0.017-0.065 0.018-0.012 0.001-0.025 0.001-0.026 0.001h-0.086l-0.016 0.015h-0.109l-0.151 0.145v-0.16h-0.086l0.086-0.083v-0.002c-0.017-0.030-0.024-0.058-0.026-0.074-0.002-0.010-0.001-0.021-0.002-0.029l-0.198-0.19h0.255c0.003-0.003 0.005-0.008 0.009-0.012l0.005-0.005c0.013-0.021 0.026-0.040 0.041-0.055l0.050-0.049h0.016l0.182-0.175v0.13zM2.423 16.722c-0.002 0.002-0.004 0.004-0.005 0.005 0-0 0.003-0.002 0.006-0.005l-0.001 0.001z"></path>
<path d="M2.725 16.596c0.138 0.005 0.274 0.059 0.373 0.107l0.108 0.060c0.034 0.020 0.062 0.036 0.090 0.050 0.052 0.025 0.084 0.029 0.107 0.026 0.027-0.009 0.056-0.024 0.11-0.054 0.048-0.026 0.122-0.067 0.209-0.081v-0.001c0.001-0 0.002 0 0.003 0s0.003-0.001 0.004-0.001v0.001c0.17-0.029 0.314 0.014 0.433 0.067 0.059 0.026 0.116 0.057 0.166 0.084s0.093 0.048 0.137 0.067c0.090 0.028 0.129 0.010 0.296-0.008h0.002l0.133-0.003c0.043 0.002 0.084 0.008 0.126 0.019s0.078 0.025 0.115 0.041l0.107 0.057 0.004 0.003 0.054 0.027c0.014 0.004 0.024 0.005 0.033 0.005 0.013 0 0.031-0.001 0.058-0.006 0.032-0.006 0.055-0.011 0.102-0.020l0.010-0.002c0.024-0.003 0.050-0.007 0.080-0.012s0.061-0.009 0.093-0.014 0.14-0.015 0.217-0.004l0.103 0.022c0.196 0.055 0.334 0.18 0.437 0.317l0.048 0.069 0.003 0.004 0.076 0.138c0.024 0.045 0.045 0.083 0.067 0.116 0.045 0.066 0.078 0.083 0.11 0.085h0.004l0.061-0.004c0.061-0.014 0.125-0.059 0.222-0.138 0.056-0.046 0.129-0.106 0.208-0.149 0.083-0.046 0.185-0.081 0.304-0.069l-0.001 0.001c0.086 0.004 0.17 0.039 0.229 0.104s0.089 0.155 0.070 0.249l-0.011 0.041c-0.052 0.151-0.162 0.242-0.251 0.304l-0.263 0.175c-0.071 0.043-0.15 0.083-0.235 0.111l-0.001-0.001c-0.263 0.104-0.593 0.090-0.836-0.124v0.001c-0.098-0.085-0.164-0.182-0.217-0.27-0.057-0.093-0.095-0.164-0.15-0.238l-0.001-0.001c-0.020-0.027-0.036-0.035-0.048-0.039-0.014-0.005-0.037-0.008-0.075-0.004-0.039 0.004-0.082 0.015-0.139 0.029l-0.183 0.038c-0.142 0.019-0.282-0-0.417-0.056l-0.004-0.002-0.005-0.002c-0.032-0.015-0.059-0.031-0.080-0.044-0.023-0.014-0.035-0.022-0.048-0.030-0.019-0.011-0.029-0.014-0.046-0.014-0.007 0-0.018 0.002-0.052 0.010-0.026 0.006-0.073 0.017-0.125 0.018l0.001 0.001c-0.003 0-0.005-0.001-0.008-0.001l-0.002 0.001v-0.001c-0.169 0.007-0.306-0.041-0.421-0.094-0.125-0.057-0.205-0.105-0.315-0.138l-0.009-0.003v-0.001c-0.021-0.008-0.033-0.006-0.051-0.001-0.013 0.004-0.028 0.010-0.052 0.021-0.019 0.009-0.046 0.021-0.075 0.033l0.001 0.001c-0.157 0.076-0.331 0.101-0.509 0.037v-0.001c-0.119-0.033-0.224-0.103-0.303-0.164l-0.073-0.059-0.003-0.002c-0.098-0.082-0.199-0.124-0.324-0.124-0.087-0-0.163-0.047-0.201-0.12-0.034-0.065-0.034-0.144 0-0.209l0.003-0.004 0.002-0.004 0.041-0.059c0.101-0.125 0.24-0.166 0.372-0.161z"></path>
<path d="M12.638 15.291c0.265-0.028 0.53-0.007 0.793 0.063l0.115 0.030c0.57 0.161 1.109 0.519 1.492 0.93h0.001c0.001 0.001 0.002 0.003 0.003 0.004s0.002 0.002 0.003 0.003h-0.001c0.111 0.114 0.098 0.27 0.024 0.369-0.077 0.102-0.223 0.155-0.366 0.086l-0.007-0.003v-0.001c-0.147-0.079-0.29-0.169-0.428-0.259-0.14-0.091-0.273-0.179-0.411-0.26-0.275-0.161-0.547-0.281-0.85-0.301l-0.005-0.001c-0.271-0.026-0.505 0.062-0.823 0.143l0.001 0.001c-0.163 0.047-0.314 0.080-0.483 0.096l-0.001-0.001c-0.080 0.009-0.117 0.011-0.183 0.020-0.056 0.008-0.094 0.019-0.122 0.035-0.018 0.010-0.037 0.029-0.078 0.083-0.034 0.045-0.090 0.122-0.172 0.178l-0.005 0.003-0.001-0.001c-0.117 0.075-0.251 0.113-0.385 0.116l0.001 0.001c-0.002 0-0.003-0-0.005 0-0.005 0-0.011 0.001-0.016 0.001v-0.001c-0.036 0.003-0.071 0.005-0.098 0.004-0.036-0.001-0.059-0.001-0.082 0-0.039 0.002-0.044 0.009-0.048 0.013l-0.005 0.005-0.005 0.004c-0.015 0.014-0.031 0.040-0.052 0.085-0.010 0.022-0.019 0.046-0.030 0.073-0.010 0.026-0.023 0.057-0.036 0.088l-0.003 0.008c-0.243 0.485-0.772 0.662-1.232 0.738l0.001 0.001c-0.141 0.024-0.277 0.035-0.406 0.045-0.132 0.010-0.254 0.017-0.382 0.031l-0.002 0.001c-0.273 0.028-0.491 0.096-0.748 0.198l-0.012 0.005-0.012 0.003c-0.050 0.012-0.098 0.007-0.135-0.002s-0.078-0.027-0.113-0.053c-0.032-0.025-0.079-0.072-0.092-0.145-0.013-0.075 0.015-0.137 0.054-0.181h-0.001c0.235-0.299 0.578-0.407 0.899-0.458 0.162-0.026 0.328-0.038 0.48-0.051s0.292-0.025 0.416-0.049c0.218-0.053 0.396-0.11 0.525-0.223l0.057-0.057 0.043-0.054c0.040-0.057 0.073-0.126 0.118-0.216 0.054-0.108 0.127-0.245 0.261-0.346l0.050-0.037c0.114-0.075 0.241-0.104 0.37-0.106l0.124-0.007c0.034-0.001 0.055-0.003 0.072-0.006 0.011-0.002 0.021-0.005 0.034-0.012l0.047-0.040c0.1-0.112 0.202-0.204 0.327-0.268 0.127-0.065 0.266-0.095 0.43-0.103h0.001l0.118-0.009c0.116-0.014 0.23-0.041 0.348-0.073 0.154-0.041 0.326-0.094 0.507-0.126h0.002l0.115-0.016z"></path>
<path d="M42.295 14.13c0.038 0 0.1 0.010 0.149 0.062 0.046 0.048 0.058 0.107 0.052 0.158v0.874c0 0.026 0.004 0.103-0.001 0.16-0.004 0.045-0.014 0.113-0.052 0.175l-0.048 0.060c-0.048 0.046-0.108 0.060-0.152 0.060-0.033 0-0.075-0.008-0.114-0.031l-0.037-0.029-0.008-0.007-0.006-0.007c-0.069-0.083-0.079-0.176-0.079-0.241 0-0.032 0.003-0.063 0.005-0.086 0.002-0.025 0.003-0.041 0.003-0.055 0-0.053 0.005-0.11 0.009-0.157 0.004-0.050 0.007-0.092 0.007-0.128v-0.007l0.001-0.006c0.016-0.211 0.031-0.407 0.047-0.602l0.002-0.022 0.007-0.021c0.038-0.111 0.143-0.151 0.215-0.151z"></path>
<path d="M42.494 14.164c0.047 0 0.101 0.015 0.145 0.053 0.048 0.041 0.075 0.101 0.075 0.166 0 0.070 0.004 0.137 0.008 0.209 0.004 0.071 0.008 0.146 0.008 0.227v0.211c0 0.014 0.001 0.028 0.001 0.049 0.001 0.019 0.001 0.044 0 0.071-0.003 0.048-0.014 0.11-0.052 0.171l-0.018 0.029c-0.047 0.063-0.119 0.087-0.177 0.087-0.065 0-0.127-0.027-0.173-0.071l-0.009-0.008-0.008-0.010c-0.053-0.068-0.066-0.142-0.069-0.197-0.001-0.026-0.001-0.052 0-0.071 0.001-0.021 0.002-0.035 0.002-0.049 0-0.042 0.005-0.087 0.009-0.119 0.004-0.036 0.007-0.065 0.007-0.092 0-0.161 0.017-0.306 0.032-0.453h0.001c0.005-0.058 0.029-0.111 0.073-0.148s0.098-0.053 0.145-0.053z"></path>
<path d="M29.23 3.949c0 0.204-0 0.402-0.016 0.601l-0.008 0.156c-0.004 0.050-0.007 0.092-0.007 0.129v0.15c0 0.017 0.001 0.057-0.008 0.097s-0.027 0.075-0.053 0.107c-0.015 0.024-0.035 0.042-0.054 0.055-0.037 0.024-0.076 0.031-0.105 0.031s-0.068-0.006-0.105-0.031c-0.023-0.015-0.044-0.037-0.060-0.066-0.037-0.053-0.044-0.108-0.044-0.143 0-0.019 0.002-0.038 0.003-0.048 0.001-0.012 0.001-0.016 0.001-0.018v-0.15c0-0.053 0.004-0.109 0.008-0.156 0.004-0.050 0.008-0.092 0.008-0.129 0-0.203 0.016-0.405 0.031-0.599h0.001c0.004-0.052 0.027-0.103 0.070-0.138s0.091-0.045 0.128-0.045c0.071 0 0.15 0.037 0.191 0.116l0.020 0.038v0.042z"></path>
<path d="M4.021 5.948c0.078 0 0.155 0.043 0.194 0.118l0.015 0.033 0.007 0.022 0.001 0.023c0.008 0.109 0.019 0.219 0.031 0.332 0.012 0.112 0.024 0.228 0.032 0.344h-0.001c0.008 0.062 0.013 0.12 0.016 0.173 0.004 0.057 0.007 0.108 0.014 0.162 0.015 0.099 0.038 0.24-0.005 0.386-0.014 0.049-0.046 0.085-0.078 0.105-0.037 0.024-0.076 0.031-0.105 0.031s-0.067-0.006-0.105-0.031c-0.026-0.017-0.050-0.044-0.067-0.079-0.043-0.071-0.059-0.143-0.066-0.2-0.004-0.031-0.005-0.062-0.007-0.086l-0.006-0.065v-0.003c-0.009-0.066-0.013-0.127-0.017-0.183-0.004-0.057-0.007-0.108-0.014-0.162l-0.001-0.005-0.001-0.005c-0.008-0.113-0.015-0.229-0.023-0.346s-0.015-0.233-0.023-0.345l-0.001-0.005v-0.006c0-0.054 0.020-0.111 0.066-0.153 0.043-0.040 0.096-0.055 0.141-0.055z"></path>
<path d="M4.291 6.364c0.051 0 0.111 0.019 0.155 0.063l0.039 0.053 0.013 0.025 0.004 0.028c0.032 0.203 0.035 0.407 0.049 0.584v0.014c0 0.16 0.017 0.385-0.018 0.585l-0.002-0.001c-0.009 0.059-0.044 0.102-0.080 0.126s-0.076 0.030-0.105 0.031c-0.029 0-0.068-0.006-0.105-0.031-0.033-0.022-0.066-0.059-0.079-0.111l-0.033-0.152c-0.018-0.101-0.027-0.204-0.032-0.302l-0.003-0.145c-0.015-0.198-0.016-0.381-0.016-0.571v-0.042l0.020-0.038 0.039-0.053c0.044-0.044 0.103-0.063 0.154-0.063z"></path>
<path d="M30.887 9.602l-3.11 9.969h-1.21l-2.525-7.603c-0.023-0.074-0.046-0.153-0.070-0.237-0.018-0.083-0.039-0.172-0.063-0.264-0.023 0.093-0.046 0.181-0.070 0.264s-0.046 0.162-0.070 0.237l-2.539 7.603h-1.21l-3.11-9.969h1.12c0.121 0 0.22 0.030 0.299 0.090 0.083 0.060 0.137 0.137 0.16 0.23l2.059 6.929c0.032 0.125 0.063 0.26 0.090 0.403 0.032 0.144 0.063 0.297 0.090 0.459 0.032-0.162 0.065-0.315 0.097-0.459 0.037-0.148 0.077-0.283 0.118-0.403l2.344-6.929c0.028-0.079 0.081-0.151 0.16-0.216 0.083-0.070 0.183-0.104 0.299-0.104h0.39c0.121 0 0.218 0.030 0.292 0.090s0.13 0.137 0.167 0.23l2.337 6.929c0.042 0.121 0.079 0.25 0.111 0.39 0.037 0.139 0.072 0.285 0.104 0.438 0.023-0.153 0.049-0.299 0.077-0.438s0.058-0.269 0.090-0.39l2.066-6.929c0.023-0.083 0.074-0.158 0.153-0.223 0.083-0.065 0.183-0.097 0.299-0.097h1.050z"></path>
</symbol>
<symbol id="burger" viewBox="0 0 42 32">
<path stroke-linejoin="round" stroke-linecap="round" stroke-miterlimit="4" stroke-width="3.2" d="M2.133 29.333h21.333M2.133 16h37.333M18.133 2.667h21.333"></path>
</symbol>
<symbol id="telegram" viewBox="0 0 37 32">
<path d="M35.717 0.767c-0.196-0.169-0.434-0.281-0.689-0.325s-0.517-0.017-0.758 0.077l-31.999 12.523c-0.454 0.176-0.837 0.495-1.094 0.909s-0.372 0.899-0.329 1.384c0.043 0.485 0.243 0.942 0.569 1.304s0.76 0.607 1.238 0.7l8.291 1.628v9.245c-0.002 0.503 0.148 0.996 0.43 1.413s0.682 0.741 1.149 0.928c0.467 0.19 0.98 0.236 1.473 0.131s0.943-0.356 1.292-0.72l3.998-4.146 6.343 5.552c0.458 0.406 1.048 0.63 1.659 0.632 0.268-0 0.534-0.042 0.789-0.125 0.417-0.132 0.792-0.371 1.087-0.694s0.502-0.716 0.598-1.143l6.409-27.881c0.057-0.251 0.045-0.514-0.035-0.759s-0.226-0.464-0.421-0.632zM26.064 6.451l-14.146 10.131-7.832-1.536 21.977-8.594zM13.473 28.211v-7.497l3.914 3.433-3.914 4.064zM27.294 29.474l-13.055-11.447 18.79-13.467-5.735 24.914z"></path>
</symbol>
<symbol id="facebook" viewBox="0 0 32 32">
<path d="M16 0.4c-3.085 0-6.101 0.915-8.667 2.629s-4.565 4.151-5.746 7.001c-1.181 2.851-1.49 5.987-0.888 9.013s2.088 5.806 4.269 7.988c2.182 2.182 4.961 3.668 7.987 4.269s6.163 0.293 9.013-0.888c2.85-1.181 5.287-3.18 7.001-5.746s2.629-5.581 2.629-8.667c-0.004-4.136-1.649-8.101-4.574-11.026s-6.89-4.57-11.026-4.574zM17.2 29.144v-9.544h3.6c0.318 0 0.624-0.126 0.848-0.352s0.352-0.53 0.352-0.848-0.126-0.624-0.352-0.848c-0.225-0.225-0.53-0.352-0.848-0.352h-3.6v-3.6c0-0.636 0.253-1.247 0.703-1.697s1.061-0.703 1.697-0.703h2.4c0.318 0 0.624-0.126 0.848-0.351s0.352-0.53 0.352-0.849-0.126-0.623-0.352-0.849c-0.225-0.225-0.53-0.351-0.848-0.351h-2.4c-1.273 0-2.494 0.506-3.394 1.406s-1.406 2.121-1.406 3.394v3.6h-3.6c-0.318 0-0.623 0.126-0.849 0.352s-0.351 0.53-0.351 0.848 0.126 0.624 0.351 0.848c0.225 0.225 0.53 0.352 0.849 0.352h3.6v9.544c-3.383-0.309-6.516-1.91-8.749-4.47s-3.392-5.883-3.237-9.276c0.155-3.393 1.611-6.596 4.067-8.943s5.722-3.656 9.119-3.656c3.397 0 6.663 1.31 9.119 3.656s3.913 5.55 4.067 8.943c0.155 3.393-1.005 6.716-3.238 9.276s-5.366 4.161-8.749 4.47z"></path>
</symbol>
<symbol id="instagram" viewBox="0 0 32 32">
<path d="M16 8.8c-1.424 0-2.816 0.422-4 1.213s-2.107 1.916-2.652 3.231c-0.545 1.316-0.688 2.763-0.41 4.16s0.964 2.68 1.97 3.687c1.007 1.007 2.29 1.693 3.687 1.97s2.844 0.135 4.16-0.41c1.316-0.545 2.44-1.468 3.231-2.652s1.213-2.576 1.213-4c-0.002-1.909-0.761-3.739-2.111-5.089s-3.18-2.109-5.089-2.111zM16 20.8c-0.949 0-1.877-0.281-2.667-0.809s-1.405-1.277-1.768-2.154c-0.363-0.877-0.458-1.842-0.273-2.773s0.642-1.786 1.314-2.458c0.671-0.671 1.527-1.128 2.458-1.314s1.896-0.090 2.773 0.273c0.877 0.363 1.627 0.979 2.154 1.768s0.809 1.717 0.809 2.667c0 1.273-0.506 2.494-1.406 3.394s-2.121 1.406-3.394 1.406zM23.2 0.4h-14.4c-2.227 0.002-4.362 0.888-5.937 2.463s-2.461 3.71-2.463 5.937v14.4c0.002 2.227 0.888 4.362 2.463 5.937s3.71 2.46 5.937 2.463h14.4c2.227-0.002 4.362-0.888 5.937-2.463s2.46-3.71 2.463-5.937v-14.4c-0.002-2.227-0.888-4.362-2.463-5.937s-3.71-2.461-5.937-2.463zM29.2 23.2c0 1.591-0.632 3.117-1.757 4.243s-2.651 1.757-4.243 1.757h-14.4c-1.591 0-3.117-0.632-4.243-1.757s-1.757-2.651-1.757-4.243v-14.4c0-1.591 0.632-3.117 1.757-4.243s2.651-1.757 4.243-1.757h14.4c1.591 0 3.117 0.632 4.243 1.757s1.757 2.651 1.757 4.243v14.4zM25.6 8.2c0 0.356-0.106 0.704-0.303 1s-0.479 0.527-0.808 0.663c-0.329 0.136-0.691 0.172-1.040 0.102s-0.67-0.241-0.922-0.493-0.423-0.572-0.493-0.922c-0.069-0.349-0.034-0.711 0.102-1.040s0.367-0.61 0.663-0.808 0.644-0.303 1-0.303c0.477 0 0.935 0.19 1.273 0.527s0.527 0.795 0.527 1.273z"></path>
</symbol>
<symbol id="close" viewBox="0 0 32 32">
<path stroke-linejoin="round" stroke-linecap="round" stroke-miterlimit="4" stroke-width="1.6" d="M24 8l-16 16"></path>
<path stroke-linejoin="round" stroke-linecap="round" stroke-miterlimit="4" stroke-width="1.6" d="M8 8l16 16"></path>
</symbol>
<symbol id="travel" viewBox="0 0 55 32">
<path d="M51.429 12.143c0.71 0 1.286-0.576 1.286-1.286v-8.571c0-0.71-0.576-1.286-1.286-1.286h-48c-0.71 0-1.286 0.576-1.286 1.286v8.571c0 0.71 0.576 1.286 1.286 1.286 2.131 0 3.857 1.726 3.857 3.857s-1.726 3.857-3.857 3.857c-0.71 0-1.286 0.576-1.286 1.286v8.571c0 0.71 0.576 1.286 1.286 1.286h48c0.71 0 1.286-0.576 1.286-1.286v-8.571c0-0.71-0.576-1.286-1.286-1.286-2.131 0-3.857-1.726-3.857-3.857s1.726-3.857 3.857-3.857zM50.143 22.298v6.13h-45.429v-6.13c2.955-0.619 5.143-3.204 5.143-6.298s-2.187-5.679-5.1-6.291l-0.041-0.007v-6.13h45.428v6.13c-2.955 0.619-5.143 3.204-5.143 6.298s2.188 5.679 5.1 6.291l0.041 0.007z"></path>
</symbol>
<symbol id="guide" viewBox="0 0 34 32">
<path d="M14.4 21.2c-0.56 0-1.033-0.193-1.42-0.58s-0.58-0.86-0.58-1.42c0-0.56 0.193-1.033 0.58-1.42s0.86-0.58 1.42-0.58c0.56 0 1.033 0.193 1.42 0.58s0.58 0.86 0.58 1.42-0.193 1.033-0.58 1.42c-0.387 0.387-0.86 0.58-1.42 0.58zM24 21.2c-0.56 0-1.033-0.193-1.42-0.58s-0.58-0.86-0.58-1.42 0.193-1.033 0.58-1.42c0.387-0.387 0.86-0.58 1.42-0.58s1.033 0.193 1.42 0.58c0.387 0.387 0.58 0.86 0.58 1.42s-0.193 1.033-0.58 1.42c-0.387 0.387-0.86 0.58-1.42 0.58zM19.2 30.4c3.573 0 6.6-1.24 9.080-3.72s3.72-5.507 3.72-9.080c0-0.64-0.040-1.26-0.12-1.86s-0.227-1.18-0.44-1.74c-0.56 0.133-1.12 0.233-1.68 0.3s-1.147 0.1-1.76 0.1c-2.427 0-4.72-0.52-6.88-1.56s-4-2.493-5.52-4.36c-0.853 2.080-2.073 3.887-3.66 5.42s-3.433 2.687-5.54 3.46v0.24c0 3.573 1.24 6.6 3.72 9.080s5.507 3.72 9.080 3.72zM15.533 5.308c1.305 2.605 3.148 4.505 5.529 5.7s4.694 1.792 6.938 1.792c0.496 0 0.985-0.025 1.465-0.075s0.958-0.133 1.434-0.248c-1.017-2.38-2.594-4.254-4.729-5.623s-4.458-2.054-6.969-2.054c-0.701 0-1.344 0.040-1.926 0.122s-1.163 0.21-1.742 0.386zM6.619 15.529c1.647-0.732 3.316-1.932 5.006-3.6s2.676-3.764 2.957-6.289c-2.139 0.814-3.911 2.096-5.314 3.846s-2.286 3.764-2.649 6.043zM5.48 13.535c0.583-2.131 1.605-4.010 3.066-5.635s3.227-2.832 5.297-3.62c-0.576-0.724-1.291-1.311-2.144-1.76s-1.795-0.674-2.826-0.674c-1.777 0-3.28 0.615-4.508 1.844s-1.842 2.735-1.842 4.516c0 1.121 0.271 2.145 0.812 3.073s1.256 1.68 2.145 2.256zM19.206 32c-1.991 0-3.863-0.378-5.616-1.134s-3.278-1.782-4.575-3.078c-1.297-1.296-2.323-2.82-3.080-4.572s-1.135-3.624-1.135-5.616c0-0.421 0.017-0.837 0.052-1.251s0.097-0.813 0.188-1.198c-1.249-0.673-2.248-1.625-2.995-2.856s-1.122-2.594-1.122-4.088c0-2.213 0.773-4.093 2.32-5.64s3.427-2.32 5.64-2.32c1.352 0 2.596 0.314 3.731 0.943s2.063 1.471 2.783 2.528c0.611-0.172 1.236-0.302 1.873-0.388s1.281-0.129 1.93-0.129c1.992 0 3.864 0.378 5.616 1.134s3.276 1.781 4.572 3.077 2.322 2.819 3.078 4.57c0.756 1.751 1.134 3.623 1.134 5.614s-0.378 3.864-1.134 5.616c-0.756 1.753-1.781 3.278-3.077 4.575s-2.819 2.323-4.57 3.080c-1.751 0.756-3.623 1.135-5.614 1.135z"></path>
</symbol>
<symbol id="insurance" viewBox="0 0 43 32">
<path d="M37.333 1.667h-32c-2.024 0.003-3.664 1.643-3.667 3.667v21.333c0.003 2.024 1.643 3.664 3.667 3.667h32c2.024-0.003 3.664-1.643 3.667-3.667v-21.333c-0.003-2.024-1.643-3.664-3.667-3.667zM5.333 3.667h32c0.92 0.001 1.665 0.747 1.667 1.667v1.667h-35.333v-1.667c0.001-0.92 0.747-1.665 1.667-1.667zM37.333 28.333h-32c-0.92-0.001-1.665-0.747-1.667-1.667v-17.667h35.333v17.667c-0.001 0.92-0.747 1.665-1.667 1.667zM12.86 18.171c1.94 0 3.513-1.573 3.513-3.513s-1.573-3.513-3.513-3.513c-1.94 0-3.513 1.573-3.513 3.513 0.001 1.94 1.573 3.511 3.513 3.513zM12.86 13.144c0.836 0 1.513 0.677 1.513 1.513s-0.677 1.513-1.513 1.513c-0.836 0-1.513-0.677-1.513-1.513 0.001-0.836 0.677-1.512 1.513-1.513zM12.86 19.748c-2.867 0.012-5.263 2.013-5.88 4.693l-0.008 0.041c-0.015 0.064-0.023 0.137-0.023 0.213 0 0.552 0.448 1 1 1 0.476 0 0.875-0.333 0.975-0.78l0.001-0.007c0.412-1.821 2.016-3.161 3.935-3.161s3.523 1.34 3.929 3.135l0.005 0.027c0.103 0.451 0.5 0.783 0.976 0.783 0.552 0 1-0.448 1-1 0-0.075-0.008-0.146-0.024-0.217l0.001 0.007c-0.625-2.721-3.020-4.721-5.885-4.735h-0.001l-0.001 0.001zM34.667 12.333h-10.667c-0.552 0-1 0.448-1 1s0.448 1 1 1h10.667c0.552 0 1-0.448 1-1s-0.448-1-1-1zM34.667 17.667h-10.667c-0.552 0-1 0.448-1 1s0.448 1 1 1h10.667c0.552 0 1-0.448 1-1s-0.448-1-1-1zM34.667 23h-10.667c-0.552 0-1 0.448-1 1s0.448 1 1 1h10.667c0.552 0 1-0.448 1-1s-0.448-1-1-1z"></path>
</symbol>
<symbol id="transfer" viewBox="0 0 26 32">
<path d="M3.837 32c-0.267 0-0.49-0.090-0.671-0.27s-0.271-0.404-0.271-0.671v-3.569c-0.613-0.266-1.249-0.831-1.908-1.696s-0.988-1.861-0.988-2.988v-17.158c0-1.953 1.057-3.382 3.17-4.288s5.449-1.359 10.005-1.359c4.721 0 8.098 0.435 10.13 1.306s3.048 2.318 3.048 4.341v17.158c0 1.127-0.329 2.123-0.988 2.988s-1.295 1.43-1.908 1.696v3.569c0 0.267-0.090 0.49-0.27 0.671s-0.404 0.27-0.671 0.27h-0.434c-0.267 0-0.49-0.090-0.671-0.27s-0.27-0.404-0.27-0.671v-2.824h-15.928v2.824c0 0.267-0.090 0.49-0.271 0.671s-0.404 0.27-0.671 0.27h-0.434zM1.882 15.059h22.588v-8.398h-22.588v8.398zM6.597 23.747c0.586 0 1.080-0.205 1.485-0.615s0.606-0.907 0.606-1.493-0.205-1.080-0.615-1.485c-0.41-0.404-0.908-0.606-1.493-0.606s-1.080 0.205-1.485 0.615c-0.404 0.41-0.606 0.907-0.606 1.493s0.205 1.080 0.615 1.485c0.41 0.404 0.908 0.606 1.493 0.606zM19.773 23.747c0.586 0 1.080-0.205 1.485-0.615s0.606-0.907 0.606-1.493-0.205-1.080-0.615-1.485c-0.41-0.404-0.907-0.606-1.493-0.606s-1.081 0.205-1.485 0.615c-0.404 0.41-0.606 0.907-0.606 1.493s0.205 1.080 0.615 1.485c0.41 0.404 0.908 0.606 1.493 0.606zM2.078 4.778h22.241c-0.326-0.968-1.331-1.692-3.017-2.174s-4.387-0.722-8.103-0.722c-3.695 0-6.385 0.244-8.071 0.733s-2.702 1.21-3.050 2.163zM5.647 26.353h15.059c1.035 0 1.922-0.369 2.659-1.106s1.106-1.624 1.106-2.659v-5.647h-22.588v5.647c0 1.035 0.369 1.921 1.106 2.659s1.624 1.106 2.659 1.106z"></path>
</symbol>
<symbol id="arrow" viewBox="0 0 49 32">
<path stroke-linejoin="round" stroke-linecap="round" stroke-miterlimit="4" stroke-width="4.9231" d="M2.462 16h43.077M45.538 16l-12.308-12.308M45.538 16l-12.308 12.308"></path>
</symbol>
<symbol id="star" viewBox="0 0 35 32">
<path d="M17.455 0l4.617 11.1 11.984 0.961-9.13 7.821 2.789 11.694-10.259-6.266-10.26 6.266 2.789-11.694-9.13-7.821 11.983-0.961 4.617-11.1z"></path>
</symbol>
</defs>
</svg>
